<?xml version="1.0" encoding="UTF-8"?>
<svg width="200" height="60" viewBox="0 0 200 60" fill="none" xmlns="http://www.w3.org/2000/svg">
  <path d="M30 20h140v20H30z" fill="none"/>
  <path d="M45 25c0.5 0 1.2 0 2 0.2v3.6c-0.4-0.2-0.8-0.3-1.4-0.3-1.2 0-1.8 0.8-1.8 2.2v4.3h-3.6v-9.8h3.4v1.2c0.4-0.8 1-1.4 2.4-1.4z" fill="#E11837"/>
  <path d="M55 25.2v9.8h-3.4v-1c-0.6 0.8-1.6 1.2-2.8 1.2-2.6 0-4.8-2-4.8-5.2 0-3.1 2.2-5.2 4.8-5.2 1.2 0 2.2 0.4 2.8 1.2v-0.8h3.4zm-3.4 4.8c0-1.4-0.9-2.2-2.1-2.2s-2.1 0.8-2.1 2.2 0.9 2.2 2.1 2.2 2.1-0.8 2.1-2.2z" fill="#E11837"/>
  <path d="M63 34.8c-0.6 0.2-1.4 0.4-2.4 0.4-2.4 0-3.8-1-3.8-3.4v-4h-1.6v-2.6h1.6v-2.8h3.6v2.8h2.4v2.6h-2.4v3.4c0 0.8 0.4 1.1 1.1 1.1 0.4 0 0.9-0.1 1.5-0.3v2.8z" fill="#E11837"/>
  <path d="M71 25.2v9.8h-3.4v-1c-0.6 0.8-1.6 1.2-2.8 1.2-2.6 0-4.8-2-4.8-5.2 0-3.1 2.2-5.2 4.8-5.2 1.2 0 2.2 0.4 2.8 1.2v-0.8h3.4zm-3.4 4.8c0-1.4-0.9-2.2-2.1-2.2s-2.1 0.8-2.1 2.2 0.9 2.2 2.1 2.2 2.1-0.8 2.1-2.2z" fill="#E11837"/>
  <path d="M79 25c0.5 0 1.2 0 2 0.2v3.6c-0.4-0.2-0.8-0.3-1.4-0.3-1.2 0-1.8 0.8-1.8 2.2v4.3h-3.6v-9.8h3.4v1.2c0.4-0.8 1-1.4 2.4-1.4z" fill="#E11837"/>
  <path d="M89 30c0 3.2-2.2 5.2-5.2 5.2s-5.2-2-5.2-5.2c0-3.2 2.2-5.2 5.2-5.2s5.2 2 5.2 5.2zm-3.6 0c0-1.4-0.9-2.2-1.6-2.2s-1.6 0.8-1.6 2.2 0.9 2.2 1.6 2.2 1.6-0.8 1.6-2.2z" fill="#E11837"/>
  <path d="M97 25.2l-3.2 9.8h-3.8l-3.2-9.8h3.8l1.4 5.4 1.4-5.4h3.6z" fill="#E11837"/>
  <circle cx="95" cy="30" r="1.5" fill="#E11837"/>
  <circle cx="105" cy="30" r="1.5" fill="#E11837"/>
</svg> 